<?xml version="1.0" encoding="utf-8"?>
<!-- Generator: Adobe Illustrator 26.4.1, SVG Export Plug-In . SVG Version: 6.00 Build 0)  -->
<svg version="1.1" id="Capa_1" xmlns="http://www.w3.org/2000/svg" xmlns:xlink="http://www.w3.org/1999/xlink" x="0px" y="0px"
	 viewBox="0 0 256 256" style="enable-background:new 0 0 256 256;" xml:space="preserve">
<style type="text/css">
	.st0{fill:#333333;}
</style>
<g>
	<path class="st0" d="M79.9,153.2c0.4,2.6,2.7,4.6,5.4,4.6h134.9c2.6,0,4.9-1.9,5.3-4.5l30.8-93c0.3-1.6-0.2-3.2-1.2-4.4
		c-1-1.2-2.6-1.9-4.2-1.9H59.4l-6.5-21.5c-0.4-2.7-2.7-4.7-5.4-4.7h-42C2.4,27.6,0,30,0,33s2.4,5.4,5.4,5.4h37.3L79.9,153.2z
		 M215.6,146.9H89.8L61,64.7h183.4L215.6,146.9z"/>
	<path class="st0" d="M101.7,176.9c-18.2,0-33,14.8-33,33c0,18.2,14.8,33,33,33c18.2,0,33-14.8,33-33
		C134.7,191.7,119.9,176.9,101.7,176.9z M101.7,231.8c-12,0-21.8-9.8-21.8-21.8c0-12,9.8-21.8,21.8-21.8c12,0,21.8,9.8,21.8,21.8
		C123.5,222,113.7,231.8,101.7,231.8z"/>
	<path class="st0" d="M203.7,176.9c-18.2,0-33,14.8-33,33c0,18.2,14.8,33,33,33c18.2,0,33-14.8,33-33
		C236.7,191.7,221.9,176.9,203.7,176.9z M203.7,231.8c-12,0-21.8-9.8-21.8-21.8c0-12,9.8-21.8,21.8-21.8c12,0,21.8,9.8,21.8,21.8
		C225.5,222,215.7,231.8,203.7,231.8z"/>
</g>
</svg>
