<?xml version="1.0" encoding="utf-8"?>
<!-- Generator: Adobe Illustrator 26.4.1, SVG Export Plug-In . SVG Version: 6.00 Build 0)  -->
<svg version="1.1" id="Capa_1" xmlns="http://www.w3.org/2000/svg" xmlns:xlink="http://www.w3.org/1999/xlink" x="0px" y="0px"
	 viewBox="0 0 256 256" style="enable-background:new 0 0 256 256;" xml:space="preserve">
<style type="text/css">
	.st0{fill:#333333;}
</style>
<g>
	<path class="st0" d="M90.6,142c0.4,2.4,2.5,4.3,5.1,4.3h126.7c2.4,0,4.6-1.8,5-4.2l28.9-77.7c0.3-1.5-0.2-3-1.1-4.1
		c-0.9-1.1-2.4-1.8-3.9-1.8H71.3l-6.1-20.2c-0.4-2.5-2.5-4.4-5.1-4.4h-55C2.3,33.7,0,35.9,0,38.7c0,2.8,2.3,5.1,5.1,5.1h50.5
		L90.6,142z M218.1,136.1H99.9L72.8,68.5h172.3L218.1,136.1z"/>
	<path class="st0" d="M111.1,164.3c-17.1,0-31,13.9-31,31s13.9,31,31,31s31-13.9,31-31S128.2,164.3,111.1,164.3z M111.1,215.9
		c-11.3,0-20.5-9.2-20.5-20.5c0-11.3,9.2-20.5,20.5-20.5s20.5,9.2,20.5,20.5C131.5,206.6,122.3,215.9,111.1,215.9z"/>
	<path class="st0" d="M206.9,164.3c-17.1,0-31,13.9-31,31s13.9,31,31,31s31-13.9,31-31S224,164.3,206.9,164.3z M206.9,215.9
		c-11.3,0-20.5-9.2-20.5-20.5c0-11.3,9.2-20.5,20.5-20.5c11.3,0,20.5,9.2,20.5,20.5C227.4,206.6,218.2,215.9,206.9,215.9z"/>
</g>
</svg>
